<svg width="209" height="42" viewBox="0 0 209 42" fill="none" xmlns="http://www.w3.org/2000/svg">
<path d="M50.8965 33H45.5527L45.5879 30.2402H50.8965C52.7246 30.2402 54.248 29.8594 55.4668 29.0977C56.6855 28.3242 57.5996 27.2461 58.209 25.8633C58.8301 24.4688 59.1406 22.8398 59.1406 20.9766V19.4121C59.1406 17.9473 58.9648 16.6465 58.6133 15.5098C58.2617 14.3613 57.7461 13.3945 57.0664 12.6094C56.3867 11.8125 55.5547 11.209 54.5703 10.7988C53.5977 10.3887 52.4785 10.1836 51.2129 10.1836H45.4473V7.40625H51.2129C52.8887 7.40625 54.418 7.6875 55.8008 8.25C57.1836 8.80078 58.373 9.60352 59.3691 10.6582C60.377 11.7012 61.1504 12.9668 61.6895 14.4551C62.2285 15.9316 62.498 17.5957 62.498 19.4473V20.9766C62.498 22.8281 62.2285 24.498 61.6895 25.9863C61.1504 27.4629 60.3711 28.7227 59.3516 29.7656C58.3438 30.8086 57.125 31.6113 55.6953 32.1738C54.2773 32.7246 52.6777 33 50.8965 33ZM47.3633 7.40625V33H43.9707V7.40625H47.3633ZM70.3555 16.9688V33H67.1035V13.9805H70.2676L70.3555 16.9688ZM76.2969 13.875L76.2793 16.8984C76.0098 16.8398 75.752 16.8047 75.5059 16.793C75.2715 16.7695 75.002 16.7578 74.6973 16.7578C73.9473 16.7578 73.2852 16.875 72.7109 17.1094C72.1367 17.3438 71.6504 17.6719 71.252 18.0938C70.8535 18.5156 70.5371 19.0195 70.3027 19.6055C70.0801 20.1797 69.9336 20.8125 69.8633 21.5039L68.9492 22.0312C68.9492 20.8828 69.0605 19.8047 69.2832 18.7969C69.5176 17.7891 69.875 16.8984 70.3555 16.125C70.8359 15.3398 71.4453 14.7305 72.1836 14.2969C72.9336 13.8516 73.8242 13.6289 74.8555 13.6289C75.0898 13.6289 75.3594 13.6582 75.6641 13.7168C75.9688 13.7637 76.1797 13.8164 76.2969 13.875ZM89.8145 29.748V19.957C89.8145 19.207 89.6621 18.5566 89.3574 18.0059C89.0645 17.4434 88.6191 17.0098 88.0215 16.7051C87.4238 16.4004 86.6855 16.248 85.8066 16.248C84.9863 16.248 84.2656 16.3887 83.6445 16.6699C83.0352 16.9512 82.5547 17.3203 82.2031 17.7773C81.8633 18.2344 81.6934 18.7266 81.6934 19.2539H78.4414C78.4414 18.5742 78.6172 17.9004 78.9688 17.2324C79.3203 16.5645 79.8242 15.9609 80.4805 15.4219C81.1484 14.8711 81.9453 14.4375 82.8711 14.1211C83.8086 13.793 84.8516 13.6289 86 13.6289C87.3828 13.6289 88.6016 13.8633 89.6562 14.332C90.7227 14.8008 91.5547 15.5098 92.1523 16.459C92.7617 17.3965 93.0664 18.5742 93.0664 19.9922V28.8516C93.0664 29.4844 93.1191 30.1582 93.2246 30.873C93.3418 31.5879 93.5117 32.2031 93.7344 32.7188V33H90.3418C90.1777 32.625 90.0488 32.127 89.9551 31.5059C89.8613 30.873 89.8145 30.2871 89.8145 29.748ZM90.377 21.4688L90.4121 23.7539H87.125C86.1992 23.7539 85.373 23.8301 84.6465 23.9824C83.9199 24.123 83.3105 24.3398 82.8184 24.6328C82.3262 24.9258 81.9512 25.2949 81.6934 25.7402C81.4355 26.1738 81.3066 26.6836 81.3066 27.2695C81.3066 27.8672 81.4414 28.4121 81.7109 28.9043C81.9805 29.3965 82.3848 29.7891 82.9238 30.082C83.4746 30.3633 84.1484 30.5039 84.9453 30.5039C85.9414 30.5039 86.8203 30.293 87.582 29.8711C88.3438 29.4492 88.9473 28.9336 89.3926 28.3242C89.8496 27.7148 90.0957 27.123 90.1309 26.5488L91.5195 28.1133C91.4375 28.6055 91.2148 29.1504 90.8516 29.748C90.4883 30.3457 90.002 30.9199 89.3926 31.4707C88.7949 32.0098 88.0801 32.4609 87.248 32.8242C86.4277 33.1758 85.502 33.3516 84.4707 33.3516C83.1816 33.3516 82.0508 33.0996 81.0781 32.5957C80.1172 32.0918 79.3672 31.418 78.8281 30.5742C78.3008 29.7188 78.0371 28.7637 78.0371 27.709C78.0371 26.6895 78.2363 25.793 78.6348 25.0195C79.0332 24.2344 79.6074 23.584 80.3574 23.0684C81.1074 22.541 82.0098 22.1426 83.0645 21.873C84.1191 21.6035 85.2969 21.4688 86.5977 21.4688H90.377ZM103.033 33H99.7812V11.9766C99.7812 10.6055 100.027 9.45117 100.52 8.51367C101.023 7.56445 101.744 6.84961 102.682 6.36914C103.619 5.87695 104.732 5.63086 106.021 5.63086C106.396 5.63086 106.771 5.6543 107.146 5.70117C107.533 5.74805 107.908 5.81836 108.271 5.91211L108.096 8.56641C107.85 8.50781 107.568 8.4668 107.252 8.44336C106.947 8.41992 106.643 8.4082 106.338 8.4082C105.646 8.4082 105.049 8.54883 104.545 8.83008C104.053 9.09961 103.678 9.49805 103.42 10.0254C103.162 10.5527 103.033 11.2031 103.033 11.9766V33ZM107.076 13.9805V16.4766H96.7754V13.9805H107.076ZM118.66 13.9805V16.4766H108.377V13.9805H118.66ZM111.857 9.35742H115.109V28.2891C115.109 28.9336 115.209 29.4199 115.408 29.748C115.607 30.0762 115.865 30.293 116.182 30.3984C116.498 30.5039 116.838 30.5566 117.201 30.5566C117.471 30.5566 117.752 30.5332 118.045 30.4863C118.35 30.4277 118.578 30.3809 118.73 30.3457L118.748 33C118.49 33.082 118.15 33.1582 117.729 33.2285C117.318 33.3105 116.82 33.3516 116.234 33.3516C115.438 33.3516 114.705 33.1934 114.037 32.877C113.369 32.5605 112.836 32.0332 112.438 31.2949C112.051 30.5449 111.857 29.5371 111.857 28.2715V9.35742ZM138.822 33H133.479L133.514 30.2402H138.822C140.65 30.2402 142.174 29.8594 143.393 29.0977C144.611 28.3242 145.525 27.2461 146.135 25.8633C146.756 24.4688 147.066 22.8398 147.066 20.9766V19.4121C147.066 17.9473 146.891 16.6465 146.539 15.5098C146.188 14.3613 145.672 13.3945 144.992 12.6094C144.312 11.8125 143.48 11.209 142.496 10.7988C141.523 10.3887 140.404 10.1836 139.139 10.1836H133.373V7.40625H139.139C140.814 7.40625 142.344 7.6875 143.727 8.25C145.109 8.80078 146.299 9.60352 147.295 10.6582C148.303 11.7012 149.076 12.9668 149.615 14.4551C150.154 15.9316 150.424 17.5957 150.424 19.4473V20.9766C150.424 22.8281 150.154 24.498 149.615 25.9863C149.076 27.4629 148.297 28.7227 147.277 29.7656C146.27 30.8086 145.051 31.6113 143.621 32.1738C142.203 32.7246 140.604 33 138.822 33ZM135.289 7.40625V33H131.896V7.40625H135.289ZM162.922 33.3516C161.598 33.3516 160.396 33.1289 159.318 32.6836C158.252 32.2266 157.332 31.5879 156.559 30.7676C155.797 29.9473 155.211 28.9746 154.801 27.8496C154.391 26.7246 154.186 25.4941 154.186 24.1582V23.4199C154.186 21.873 154.414 20.4961 154.871 19.2891C155.328 18.0703 155.949 17.0391 156.734 16.1953C157.52 15.3516 158.41 14.7129 159.406 14.2793C160.402 13.8457 161.434 13.6289 162.5 13.6289C163.859 13.6289 165.031 13.8633 166.016 14.332C167.012 14.8008 167.826 15.457 168.459 16.3008C169.092 17.1328 169.561 18.1172 169.865 19.2539C170.17 20.3789 170.322 21.6094 170.322 22.9453V24.4043H156.119V21.75H167.07V21.5039C167.023 20.6602 166.848 19.8398 166.543 19.043C166.25 18.2461 165.781 17.5898 165.137 17.0742C164.492 16.5586 163.613 16.3008 162.5 16.3008C161.762 16.3008 161.082 16.459 160.461 16.7754C159.84 17.0801 159.307 17.5371 158.861 18.1465C158.416 18.7559 158.07 19.5 157.824 20.3789C157.578 21.2578 157.455 22.2715 157.455 23.4199V24.1582C157.455 25.0605 157.578 25.9102 157.824 26.707C158.082 27.4922 158.451 28.1836 158.932 28.7812C159.424 29.3789 160.016 29.8477 160.707 30.1875C161.41 30.5273 162.207 30.6973 163.098 30.6973C164.246 30.6973 165.219 30.4629 166.016 29.9941C166.812 29.5254 167.51 28.8984 168.107 28.1133L170.076 29.6777C169.666 30.2988 169.145 30.8906 168.512 31.4531C167.879 32.0156 167.1 32.4727 166.174 32.8242C165.26 33.1758 164.176 33.3516 162.922 33.3516ZM185.193 27.9551C185.193 27.4863 185.088 27.0527 184.877 26.6543C184.678 26.2441 184.262 25.875 183.629 25.5469C183.008 25.207 182.07 24.9141 180.816 24.668C179.762 24.4453 178.807 24.1816 177.951 23.877C177.107 23.5723 176.387 23.2031 175.789 22.7695C175.203 22.3359 174.752 21.8262 174.436 21.2402C174.119 20.6543 173.961 19.9688 173.961 19.1836C173.961 18.4336 174.125 17.7246 174.453 17.0566C174.793 16.3887 175.268 15.7969 175.877 15.2812C176.498 14.7656 177.242 14.3613 178.109 14.0684C178.977 13.7754 179.943 13.6289 181.01 13.6289C182.533 13.6289 183.834 13.8984 184.912 14.4375C185.99 14.9766 186.816 15.6973 187.391 16.5996C187.965 17.4902 188.252 18.4805 188.252 19.5703H185C185 19.043 184.842 18.5332 184.525 18.041C184.221 17.5371 183.77 17.1211 183.172 16.793C182.586 16.4648 181.865 16.3008 181.01 16.3008C180.107 16.3008 179.375 16.4414 178.812 16.7227C178.262 16.9922 177.857 17.3379 177.6 17.7598C177.354 18.1816 177.23 18.627 177.23 19.0957C177.23 19.4473 177.289 19.7637 177.406 20.0449C177.535 20.3145 177.758 20.5664 178.074 20.8008C178.391 21.0234 178.836 21.2344 179.41 21.4336C179.984 21.6328 180.717 21.832 181.607 22.0312C183.166 22.3828 184.449 22.8047 185.457 23.2969C186.465 23.7891 187.215 24.3926 187.707 25.1074C188.199 25.8223 188.445 26.6895 188.445 27.709C188.445 28.541 188.27 29.3027 187.918 29.9941C187.578 30.6855 187.08 31.2832 186.424 31.7871C185.779 32.2793 185.006 32.666 184.104 32.9473C183.213 33.2168 182.211 33.3516 181.098 33.3516C179.422 33.3516 178.004 33.0527 176.844 32.4551C175.684 31.8574 174.805 31.084 174.207 30.1348C173.609 29.1855 173.311 28.1836 173.311 27.1289H176.58C176.627 28.0195 176.885 28.7285 177.354 29.2559C177.822 29.7715 178.396 30.1406 179.076 30.3633C179.756 30.5742 180.43 30.6797 181.098 30.6797C181.988 30.6797 182.732 30.5625 183.33 30.3281C183.939 30.0938 184.402 29.7715 184.719 29.3613C185.035 28.9512 185.193 28.4824 185.193 27.9551ZM195.986 6V33H192.717V6H195.986ZM207.605 13.9805L199.309 22.8574L194.668 27.6738L194.404 24.2109L197.727 20.2383L203.633 13.9805H207.605ZM204.635 33L197.85 23.9297L199.537 21.0293L208.467 33H204.635Z" fill="#6B4E90"/>
<g opacity="0.4">
<path fill-rule="evenodd" clip-rule="evenodd" d="M20.0643 4.25936C19.9696 4.25314 19.8744 4.25 19.7788 4.25H10.5107C6.50073 4.25 3.25 7.39051 3.25 11.2645V28.9855C3.25 32.8595 6.50073 36 10.5107 36H22.7393C26.7493 36 30 32.8595 30 28.9855V15.3256H24.2679C21.9463 15.3256 20.0643 13.5074 20.0643 11.2645V4.25936ZM9.36429 20.125C9.36429 19.5133 9.87756 19.0174 10.5107 19.0174H16.625H22.7393C23.3724 19.0174 23.8857 19.5133 23.8857 20.125C23.8857 20.7367 23.3724 21.2326 22.7393 21.2326H10.5107C9.87756 21.2326 9.36429 20.7367 9.36429 20.125ZM10.5107 26.4012C9.87756 26.4012 9.36429 26.897 9.36429 27.5087C9.36429 28.1204 9.87756 28.6163 10.5107 28.6163H16.625C17.2582 28.6163 17.7714 28.1204 17.7714 27.5087C17.7714 26.897 17.2582 26.4012 16.625 26.4012H10.5107Z" fill="#C7C4FF"/>
<path d="M29.3451 13.1105C29.2486 12.9637 29.142 12.8223 29.0257 12.6875L23.0081 5.71123C22.8126 5.48457 22.594 5.28131 22.3571 5.10359V11.2645C22.3571 12.284 23.2126 13.1105 24.2679 13.1105H29.3451Z" fill="#C7C4FF"/>
</g>
<path d="M10.5107 20.125H22.7393" stroke="#C7C4FF" stroke-width="1.5" stroke-linecap="round"/>
<path d="M10.5107 27.5087H16.625" stroke="#C7C4FF" stroke-width="1.5" stroke-linecap="round"/>
</svg>
